<?xml version="1.0" encoding="UTF-8"?>
<svg id="Layer_1" data-name="Layer 1" xmlns="http://www.w3.org/2000/svg" xmlns:xlink="http://www.w3.org/1999/xlink" viewBox="0 0 500 500">
  <defs>
    <style>
      .cls-1 {
        fill: #e1e2fe;
      }

      .cls-2 {
        fill: url(#radial-gradient);
      }

      .cls-3 {
        fill: #dcdcdc;
      }

      .cls-4 {
        fill: url(#linear-gradient);
      }
    </style>
    <radialGradient id="radial-gradient" cx="103.62" cy="277" fx="103.62" fy="277" r="121.5" gradientTransform="translate(244.62 557.81) rotate(-20.89) scale(1 -1)" gradientUnits="userSpaceOnUse">
      <stop offset="0" stop-color="#e61b27"/>
      <stop offset="1" stop-color="#2d1b27"/>
    </radialGradient>
    <linearGradient id="linear-gradient" x1="112.31" y1="472.33" x2="112.31" y2="425.33" gradientTransform="translate(46.33 757.39) rotate(1.53) scale(1 -1.11)" gradientUnits="userSpaceOnUse">
      <stop offset="0" stop-color="#e61b27"/>
      <stop offset=".17" stop-color="#b0141d"/>
      <stop offset=".39" stop-color="#720d13"/>
      <stop offset=".59" stop-color="#41070b"/>
      <stop offset=".77" stop-color="#1d0305"/>
      <stop offset=".91" stop-color="#070001"/>
      <stop offset="1" stop-color="#000"/>
    </linearGradient>
  </defs>
  <rect class="cls-2" x="129.61" y="203.79" width="243" height="104" rx="10" ry="10"/>
  <path class="cls-1" d="M218.71,281.79c-.16,0-.29-.05-.4-.15-.09-.1-.13-.23-.13-.37v-11.4l-3.34,2.57c-.13,.09-.26,.12-.4,.11-.13-.03-.25-.11-.35-.24l-.92-1.19c-.09-.13-.12-.27-.11-.42,.03-.15,.11-.26,.24-.35l4.93-3.81c.09-.07,.18-.12,.26-.13,.09-.01,.18-.02,.29-.02h1.94c.15,0,.27,.05,.37,.15s.15,.23,.15,.37v14.34c0,.15-.05,.27-.15,.37-.1,.1-.23,.15-.37,.15h-2Zm11.31,.22c-1.04,0-1.93-.15-2.66-.46-.73-.31-1.34-.73-1.8-1.28-.47-.54-.82-1.17-1.06-1.87-.24-.72-.37-1.48-.42-2.29-.01-.4-.03-.83-.04-1.3v-1.45c.01-.48,.03-.93,.04-1.34,.03-.81,.17-1.56,.42-2.27,.25-.72,.61-1.34,1.08-1.87,.48-.53,1.09-.95,1.83-1.25,.73-.31,1.61-.46,2.62-.46s1.91,.15,2.64,.46c.73,.31,1.33,.73,1.8,1.25,.48,.53,.84,1.15,1.08,1.87,.25,.7,.39,1.46,.42,2.27,.03,.41,.04,.86,.04,1.34v1.45c0,.47-.01,.9-.04,1.3-.03,.81-.16,1.57-.4,2.29-.24,.7-.59,1.33-1.06,1.87-.47,.54-1.08,.97-1.83,1.28-.73,.31-1.62,.46-2.66,.46Zm0-2.53c.95,0,1.65-.31,2.09-.92,.45-.63,.69-1.48,.7-2.55,.03-.42,.04-.85,.04-1.28v-1.32c0-.44-.01-.86-.04-1.25-.01-1.04-.25-1.88-.7-2.51-.44-.65-1.14-.97-2.09-.97s-1.64,.32-2.09,.97c-.44,.63-.68,1.47-.7,2.51,0,.4,0,.81-.02,1.25v1.32c.01,.42,.02,.85,.02,1.28,.03,1.07,.27,1.92,.73,2.55,.45,.62,1.14,.92,2.07,.92Zm14.46,2.53c-1.04,0-1.93-.15-2.66-.46-.73-.31-1.34-.73-1.8-1.28-.47-.54-.82-1.17-1.06-1.87-.24-.72-.37-1.48-.42-2.29-.01-.4-.03-.83-.04-1.3v-1.45c.01-.48,.03-.93,.04-1.34,.03-.81,.17-1.56,.42-2.27,.25-.72,.61-1.34,1.08-1.87,.48-.53,1.09-.95,1.83-1.25,.73-.31,1.61-.46,2.62-.46s1.91,.15,2.64,.46c.73,.31,1.33,.73,1.8,1.25,.48,.53,.84,1.15,1.08,1.87,.25,.7,.39,1.46,.42,2.27,.03,.41,.04,.86,.04,1.34v1.45c0,.47-.01,.9-.04,1.3-.03,.81-.16,1.57-.4,2.29-.24,.7-.59,1.33-1.06,1.87-.47,.54-1.08,.97-1.83,1.28-.73,.31-1.62,.46-2.66,.46Zm0-2.53c.95,0,1.65-.31,2.09-.92,.45-.63,.69-1.48,.7-2.55,.03-.42,.04-.85,.04-1.28v-1.32c0-.44-.01-.86-.04-1.25-.01-1.04-.25-1.88-.7-2.51-.44-.65-1.14-.97-2.09-.97s-1.64,.32-2.09,.97c-.44,.63-.68,1.47-.7,2.51,0,.4,0,.81-.02,1.25v1.32c.01,.42,.02,.85,.02,1.28,.03,1.07,.27,1.92,.73,2.55,.45,.62,1.14,.92,2.07,.92Zm20.06,2.53c-.85,0-1.56-.15-2.13-.44-.56-.29-1.02-.67-1.39-1.12v.81c0,.15-.05,.27-.15,.37-.09,.1-.21,.15-.37,.15h-1.74c-.15,0-.27-.05-.37-.15-.1-.1-.15-.23-.15-.37v-14.56c0-.15,.05-.27,.15-.37,.1-.1,.23-.15,.37-.15h1.87c.16,0,.29,.05,.37,.15,.1,.1,.15,.23,.15,.37v4.88c.37-.43,.82-.77,1.36-1.03,.56-.28,1.23-.42,2.02-.42s1.45,.13,2.02,.4c.57,.26,1.05,.64,1.43,1.12,.4,.47,.7,1.02,.9,1.65,.21,.63,.32,1.31,.33,2.05,.01,.26,.02,.51,.02,.73,0,.21,0,.44-.02,.7-.03,.76-.15,1.47-.35,2.11-.21,.63-.5,1.18-.88,1.65-.38,.47-.86,.84-1.43,1.1-.57,.25-1.25,.37-2.02,.37Zm-.81-2.35c.63,0,1.12-.13,1.47-.4,.35-.28,.61-.64,.77-1.08,.16-.44,.26-.92,.29-1.45,.01-.44,.01-.88,0-1.32-.03-.53-.12-1.01-.29-1.45s-.42-.79-.77-1.06c-.35-.28-.84-.42-1.47-.42-.59,0-1.06,.13-1.43,.4-.37,.26-.65,.6-.84,1.01-.19,.4-.29,.81-.31,1.25-.01,.26-.02,.55-.02,.86s0,.57,.02,.84c.03,.45,.12,.9,.29,1.34,.18,.43,.45,.78,.81,1.06,.38,.28,.87,.42,1.47,.42Zm8.52,6.31c-.15,0-.27-.05-.37-.15-.1-.1-.15-.23-.15-.37v-14.56c0-.15,.05-.27,.15-.37,.1-.1,.23-.15,.37-.15h1.74c.16,0,.29,.05,.37,.15,.1,.1,.15,.23,.15,.37v.88c.35-.47,.81-.86,1.39-1.17,.57-.31,1.28-.46,2.13-.46,.78,0,1.45,.12,2.02,.37,.57,.25,1.05,.61,1.43,1.08,.38,.45,.67,1,.88,1.63,.21,.63,.32,1.33,.35,2.09,.01,.25,.02,.51,.02,.77s0,.53-.02,.79c-.01,.73-.12,1.42-.33,2.05-.21,.62-.51,1.16-.9,1.63-.38,.45-.86,.81-1.43,1.08s-1.25,.4-2.02,.4-1.47-.14-2.02-.42c-.56-.29-1.01-.68-1.36-1.14v4.99c0,.15-.05,.27-.15,.37-.09,.1-.21,.15-.37,.15h-1.87Zm4.97-6.31c.63,0,1.12-.13,1.47-.4,.35-.28,.61-.64,.77-1.08,.16-.44,.26-.92,.29-1.45,.01-.44,.01-.88,0-1.32-.03-.53-.12-1.01-.29-1.45-.16-.44-.42-.79-.77-1.06-.35-.28-.84-.42-1.47-.42s-1.09,.14-1.47,.42c-.37,.28-.64,.64-.81,1.08-.16,.42-.26,.86-.29,1.32-.01,.26-.02,.54-.02,.84s0,.58,.02,.86c.01,.44,.12,.86,.31,1.28,.19,.4,.47,.73,.84,.99,.37,.26,.84,.4,1.43,.4Zm8.52,2.13c-.15,0-.27-.05-.37-.15-.1-.1-.15-.23-.15-.37v-10.38c0-.15,.05-.27,.15-.37,.1-.1,.23-.15,.37-.15h1.72c.15,0,.27,.05,.37,.15,.1,.1,.15,.23,.15,.37v.75c.31-.41,.72-.76,1.23-1.03,.53-.29,1.15-.45,1.87-.46,1.67-.03,2.84,.62,3.5,1.96,.34-.59,.82-1.06,1.45-1.41,.65-.37,1.36-.55,2.13-.55s1.45,.18,2.07,.53c.63,.35,1.12,.89,1.47,1.61,.37,.7,.55,1.6,.55,2.68v6.31c0,.15-.05,.27-.15,.37-.1,.1-.23,.15-.37,.15h-1.8c-.15,0-.27-.05-.37-.15-.1-.1-.15-.23-.15-.37v-6.14c0-.66-.1-1.18-.29-1.56-.19-.4-.45-.67-.77-.84-.32-.16-.68-.24-1.08-.24-.32,0-.65,.08-.97,.24-.32,.16-.59,.44-.79,.84-.21,.38-.31,.9-.31,1.56v6.14c0,.15-.05,.27-.15,.37-.1,.1-.23,.15-.37,.15h-1.8c-.15,0-.27-.05-.37-.15-.1-.1-.15-.23-.15-.37v-6.14c0-.66-.1-1.18-.31-1.56-.21-.4-.47-.67-.79-.84-.32-.16-.67-.24-1.03-.24-.34,0-.67,.09-.99,.26-.32,.16-.59,.43-.79,.81-.21,.38-.31,.9-.31,1.56v6.14c0,.15-.05,.27-.15,.37-.1,.1-.23,.15-.37,.15h-1.85Z"/>
  <path class="cls-3" d="M222.39,232.09c-.36-.19-.74-.34-1.15-.45-.41-.12-.8-.2-1.17-.25-.37-.06-.68-.09-.92-.09-.9,0-1.71,.16-2.43,.47-.72,.31-1.34,.76-1.87,1.33-.52,.58-.91,1.26-1.19,2.05-.28,.78-.41,1.64-.41,2.57,0,.88,.12,1.7,.36,2.47,.25,.77,.62,1.44,1.12,2.02,.49,.58,1.1,1.03,1.82,1.35,.73,.32,1.57,.49,2.52,.49,.34,0,.71-.04,1.12-.11,.42-.06,.83-.15,1.24-.27s.77-.26,1.08-.41l-.88-1.73c-.37,.16-.78,.29-1.22,.4s-.92,.16-1.44,.16-1-.11-1.4-.34c-.41-.23-.75-.55-1.03-.95-.26-.41-.47-.88-.63-1.4-.14-.53-.22-1.09-.22-1.67,0-.94,.15-1.73,.45-2.38,.3-.66,.71-1.17,1.22-1.53,.52-.36,1.09-.54,1.73-.54,.36,0,.67,.02,.92,.07s.51,.11,.77,.18c.26,.06,.56,.14,.9,.25l.72-1.67Zm3.16,9.09c0-.31,.11-.59,.32-.85s.53-.38,.94-.38h1.76v1.33c-.3,.29-.62,.5-.95,.65-.32,.14-.65,.22-.97,.22-.22,0-.41-.04-.58-.13-.16-.1-.28-.22-.38-.36-.1-.16-.14-.32-.14-.49Zm-.94-3.62c.32-.14,.73-.28,1.21-.4,.48-.12,.92-.18,1.33-.18,.43,0,.77,.13,1.01,.38,.25,.24,.38,.58,.4,1.01v.02h-1.71c-.98,.01-1.78,.26-2.39,.74-.61,.47-.92,1.15-.92,2.05,0,.84,.26,1.52,.77,2.05,.52,.52,1.31,.77,2.38,.77,.43,0,.84-.11,1.22-.32,.4-.22,.76-.49,1.08-.83l.4,.94h1.53v-5.74c0-.62-.17-1.18-.52-1.66-.34-.49-.79-.88-1.37-1.15-.58-.28-1.21-.41-1.91-.41-.24,0-.57,.04-.99,.11-.41,.07-.81,.17-1.21,.29-.4,.11-.71,.24-.94,.4l.63,1.94Zm10.71,6.23v-12.71l-2.32,.2v12.51h2.32Zm6.28,.22c-.95,0-1.77-.19-2.47-.56-.7-.37-1.24-.9-1.62-1.58-.38-.7-.58-1.51-.58-2.43,.01-.94,.2-1.75,.58-2.43,.38-.7,.92-1.23,1.62-1.6,.71-.38,1.53-.58,2.47-.58s1.78,.19,2.47,.56c.7,.37,1.24,.9,1.62,1.58,.38,.68,.58,1.49,.58,2.43s-.19,1.73-.58,2.43-.92,1.24-1.62,1.62c-.7,.37-1.52,.56-2.47,.56Zm.02-2c.44,0,.83-.11,1.15-.34,.34-.23,.6-.54,.79-.94,.19-.4,.29-.84,.29-1.33s-.1-.95-.29-1.33c-.19-.38-.46-.68-.79-.9-.34-.23-.73-.34-1.17-.34s-.82,.11-1.17,.34c-.34,.23-.6,.54-.79,.94-.19,.38-.29,.83-.29,1.33s.1,.95,.29,1.33c.19,.38,.46,.69,.81,.92,.35,.22,.74,.32,1.17,.32Zm8.41,1.78v-5.33c.34-.3,.69-.56,1.06-.79,.38-.23,.75-.41,1.1-.54,.35-.13,.66-.2,.94-.2l-.47-1.87c-.31,0-.65,.08-1.03,.23-.36,.16-.71,.35-1.06,.58-.35,.22-.64,.43-.88,.65l-.77-1.46h-1.22v8.73h2.34Zm6.63,0v-8.73h-2.36v8.73h2.36Zm-1.19-9.95c.36,0,.67-.13,.92-.38,.25-.26,.38-.58,.38-.95s-.13-.68-.4-.94c-.25-.25-.56-.38-.92-.38s-.67,.13-.92,.38c-.25,.25-.38,.56-.38,.94s.13,.69,.38,.95c.25,.25,.56,.38,.94,.38Zm10.99,6.28v-.72c0-.83-.14-1.59-.43-2.29-.28-.7-.71-1.25-1.3-1.66-.59-.42-1.34-.63-2.25-.63s-1.68,.19-2.34,.58c-.66,.37-1.17,.91-1.53,1.6-.35,.68-.52,1.49-.52,2.43s.19,1.73,.56,2.43c.37,.68,.93,1.21,1.67,1.58,.76,.37,1.7,.56,2.83,.56,.5,0,.95-.05,1.33-.14,.4-.08,.75-.2,1.06-.36,.32-.17,.62-.36,.88-.58l-.68-1.69c-.38,.23-.77,.41-1.17,.56-.4,.14-.85,.22-1.37,.22-.58,0-1.04-.08-1.4-.23s-.64-.37-.83-.65c-.19-.29-.32-.62-.4-1.01h5.89Zm-5.87-1.57c.07-.38,.19-.7,.36-.95s.38-.44,.63-.58c.25-.13,.53-.2,.85-.2s.59,.07,.83,.2c.25,.12,.46,.31,.63,.56,.17,.25,.29,.58,.36,.97h-3.65Zm6.8,4.55c.28,.2,.6,.38,.97,.52,.38,.13,.76,.23,1.13,.29s.68,.09,.92,.09c1.19,0,2.09-.24,2.7-.72,.62-.48,.94-1.15,.94-2,0-.52-.15-.96-.45-1.33-.29-.38-.66-.71-1.12-.99-.44-.28-.91-.49-1.4-.65-.3-.11-.61-.23-.92-.36-.3-.14-.44-.31-.43-.49,0-.2,.1-.38,.29-.52,.2-.16,.46-.23,.76-.23,.4,0,.77,.05,1.13,.16,.36,.11,.75,.25,1.17,.43l.7-1.57c-.29-.2-.62-.37-.99-.5-.37-.13-.74-.23-1.1-.31-.35-.07-.65-.11-.9-.11-1.06,0-1.89,.24-2.5,.72-.6,.47-.9,1.12-.9,1.94,0,.48,.14,.89,.43,1.24,.3,.35,.67,.64,1.12,.88,.46,.23,.91,.42,1.35,.58,.34,.1,.61,.2,.83,.32,.23,.12,.4,.25,.52,.4,.12,.13,.18,.28,.18,.45s-.08,.31-.25,.43c-.16,.11-.34,.19-.56,.25-.22,.05-.43,.07-.63,.07-.22,0-.45-.02-.7-.07-.24-.05-.49-.11-.76-.2-.26-.1-.54-.2-.83-.31l-.7,1.57Zm17.7,.68c.65,0,1.24-.08,1.76-.23,.54-.17,1-.41,1.39-.72,.38-.31,.67-.69,.86-1.13,.2-.44,.31-.95,.31-1.51,0-.76-.18-1.38-.54-1.87-.35-.49-.8-.88-1.35-1.17,.34-.26,.64-.58,.92-.94,.28-.37,.41-.79,.41-1.24,0-.83-.17-1.49-.52-1.98-.34-.5-.81-.87-1.42-1.1-.6-.23-1.3-.34-2.09-.34h-4.75v12.24h5.02Zm-.61-10.3c.4,0,.73,.05,1.01,.14,.29,.08,.5,.24,.65,.47,.16,.22,.23,.52,.23,.9,0,.35-.1,.64-.29,.86-.19,.23-.46,.4-.81,.5-.34,.11-.72,.16-1.15,.16h-1.73v-3.04h2.09Zm.59,4.93c.58,0,1.04,.16,1.39,.47,.35,.3,.52,.74,.52,1.31,0,.35-.09,.65-.27,.9-.17,.24-.41,.43-.72,.56-.3,.13-.66,.2-1.08,.2h-2.52v-3.44h2.68Zm11.64-3.37v6.05c-.19,.14-.41,.29-.67,.45-.24,.16-.5,.29-.79,.4-.28,.11-.57,.16-.88,.16-.38,0-.69-.14-.92-.43-.23-.29-.34-.71-.34-1.26v-5.36h-2.34v5.47c0,.67,.08,1.28,.25,1.82,.17,.53,.47,.95,.9,1.26,.43,.31,1.04,.47,1.84,.47,.31,0,.65-.05,1.03-.16,.38-.1,.77-.23,1.17-.4,.41-.18,.8-.4,1.17-.67l.38,.94h1.55v-8.73h-2.34Zm6.69,8.73v-5.33c.34-.3,.69-.56,1.06-.79,.38-.23,.75-.41,1.1-.54,.35-.13,.66-.2,.94-.2l-.47-1.87c-.31,0-.65,.08-1.03,.23-.36,.16-.71,.35-1.06,.58-.35,.22-.64,.43-.88,.65l-.77-1.46h-1.22v8.73h2.34Zm6.61,0v-6.03c.2-.14,.43-.3,.67-.47,.25-.17,.52-.31,.81-.41,.29-.11,.58-.16,.86-.16,.38,0,.69,.14,.92,.43,.23,.29,.34,.71,.34,1.28v5.36h2.34v-5.47c0-.67-.09-1.27-.27-1.8-.17-.54-.47-.97-.9-1.28-.42-.31-1.03-.47-1.82-.47-.31,0-.66,.05-1.04,.14-.37,.08-.76,.22-1.17,.41-.4,.18-.78,.4-1.15,.65l-.4-.92h-1.53v8.73h2.34Zm15.7-3.67v-.72c0-.83-.14-1.59-.43-2.29-.28-.7-.71-1.25-1.3-1.66-.59-.42-1.34-.63-2.25-.63s-1.68,.19-2.34,.58c-.66,.37-1.17,.91-1.53,1.6-.35,.68-.52,1.49-.52,2.43s.19,1.73,.56,2.43c.37,.68,.93,1.21,1.67,1.58,.76,.37,1.7,.56,2.83,.56,.5,0,.95-.05,1.33-.14,.4-.08,.75-.2,1.06-.36,.32-.17,.62-.36,.88-.58l-.68-1.69c-.38,.23-.77,.41-1.17,.56-.4,.14-.85,.22-1.37,.22-.58,0-1.04-.08-1.4-.23s-.64-.37-.83-.65c-.19-.29-.32-.62-.4-1.01h5.89Zm-5.87-1.57c.07-.38,.19-.7,.36-.95s.38-.44,.63-.58,.53-.2,.85-.2,.59,.07,.83,.2c.25,.12,.46,.31,.63,.56,.17,.25,.29,.58,.36,.97h-3.65Zm13.1,3.6l1.12,1.64h1.22v-12.71l-2.34,.2v10.87Zm.49-1.3c-.42,.38-.82,.67-1.19,.86-.36,.19-.74,.29-1.15,.29s-.79-.11-1.12-.32c-.31-.23-.55-.53-.72-.92-.16-.38-.23-.82-.23-1.31s.08-.97,.23-1.35c.17-.4,.41-.71,.72-.94s.69-.34,1.13-.34c.4,0,.77,.09,1.13,.27,.37,.17,.77,.49,1.21,.95l.65-1.58c-.18-.28-.44-.54-.77-.79-.32-.25-.69-.46-1.1-.61-.4-.16-.78-.23-1.15-.23-.94,0-1.74,.2-2.41,.59-.66,.38-1.17,.92-1.53,1.62-.35,.68-.52,1.49-.52,2.41s.17,1.71,.52,2.39c.36,.68,.87,1.22,1.53,1.6,.66,.37,1.44,.56,2.34,.56,.42,0,.81-.07,1.17-.2,.37-.13,.72-.32,1.04-.56,.32-.25,.62-.54,.88-.86l-.67-1.53Z"/>
  <path class="cls-4" d="M157,281.79h-3.08c-.61,0-1.2-.25-1.63-.69-.43-.44-.68-1.04-.68-1.66v-14.1c0-.62,.24-1.22,.68-1.66,.43-.44,1.02-.69,1.63-.69h3.08c.61,0,1.2,.25,1.63,.69,.43,.44,.68,1.04,.68,1.66v14.1c0,.62-.24,1.22-.68,1.66-.43,.44-1.02,.69-1.63,.69h0Zm21.54,0h-3.08c-.61,0-1.2-.25-1.63-.69-.43-.44-.68-1.04-.68-1.66v-23.5c0-.62,.24-1.22,.68-1.66,.43-.44,1.02-.69,1.63-.69h3.08c.61,0,1.2,.25,1.63,.69,.43,.44,.68,1.04,.68,1.66v23.5c0,.62-.24,1.22-.68,1.66-.43,.44-1.02,.69-1.63,.69h0Zm10.77,0h-3.08c-.61,0-1.2-.25-1.63-.69-.43-.44-.68-1.04-.68-1.66v-34.47c0-.62,.24-1.22,.68-1.66,.43-.44,1.02-.69,1.63-.69h3.08c.61,0,1.2,.25,1.63,.69,.43,.44,.68,1.04,.68,1.66v34.47c0,.62-.24,1.22-.68,1.66-.43,.44-1.02,.69-1.63,.69h0Zm-21.54,0h-3.08c-.61,0-1.2-.25-1.63-.69-.43-.44-.68-1.04-.68-1.66v-42.3c0-.62,.24-1.22,.68-1.66,.43-.44,1.02-.69,1.63-.69h3.08c.61,0,1.2,.25,1.63,.69,.43,.44,.68,1.04,.68,1.66v42.3c0,.62-.24,1.22-.68,1.66-.43,.44-1.02,.69-1.63,.69h0Z"/>
</svg>