<?xml version="1.0" encoding="UTF-8"?>
<svg id="Layer_1" data-name="Layer 1" xmlns="http://www.w3.org/2000/svg" xmlns:xlink="http://www.w3.org/1999/xlink" viewBox="0 0 500 500">
  <defs>
    <style>
      .cls-1 {
        fill: #d6d4d9;
      }

      .cls-2 {
        fill: url(#radial-gradient);
      }

      .cls-3 {
        fill: #f44336;
      }

      .cls-4 {
        fill: #f2edfe;
      }
    </style>
    <radialGradient id="radial-gradient" cx="-183.04" cy="242.53" fx="-183.04" fy="242.53" r="84.7" gradientTransform="translate(727.49 270.18) rotate(-48.73) scale(1.73 -1.66) skewX(3.37)" gradientUnits="userSpaceOnUse">
      <stop offset="0" stop-color="#e61b27"/>
      <stop offset=".05" stop-color="#cc1b27"/>
      <stop offset=".16" stop-color="#a31b27"/>
      <stop offset=".27" stop-color="#801b27"/>
      <stop offset=".38" stop-color="#641b27"/>
      <stop offset=".5" stop-color="#4d1b27"/>
      <stop offset=".64" stop-color="#3e1b27"/>
      <stop offset=".79" stop-color="#341b27"/>
      <stop offset="1" stop-color="#321b27"/>
    </radialGradient>
  </defs>
  <path class="cls-2" d="M152.54,113.64h160.46c7.71,0,13.95,6.64,13.95,14.84v192.94c0,8.2-6.25,14.84-13.95,14.84H152.54c-7.71,0-13.95-6.64-13.95-14.84V128.48c0-8.2,6.25-14.84,13.95-14.84Z"/>
  <path class="cls-4" d="M175,297.67c-.2,0-.39-.08-.55-.23-.14-.17-.21-.37-.21-.59v-15.54l-4.21,3.43c-.18,.15-.38,.21-.58,.16-.18-.04-.35-.16-.49-.36l-1.81-2.51c-.12-.2-.17-.4-.15-.62,.04-.24,.16-.42,.37-.56l7.06-5.81c.12-.09,.24-.14,.34-.16,.12-.04,.26-.07,.4-.07h3.84c.23,0,.41,.08,.55,.23s.21,.35,.21,.59v21.22c0,.22-.07,.41-.21,.59-.14,.15-.33,.23-.55,.23h-3.99Zm17.16,.33c-1.47,0-2.75-.22-3.84-.65-1.06-.46-1.95-1.08-2.67-1.86-.72-.78-1.26-1.7-1.63-2.74-.37-1.04-.58-2.17-.64-3.36-.02-.59-.04-1.25-.06-1.99v-2.29c.02-.78,.04-1.48,.06-2.09,.06-1.2,.28-2.31,.64-3.33,.39-1.04,.94-1.95,1.66-2.71,.74-.78,1.64-1.39,2.7-1.83,1.08-.43,2.34-.65,3.78-.65s2.71,.22,3.78,.65c1.08,.43,1.98,1.04,2.7,1.83,.72,.76,1.27,1.67,1.66,2.71,.39,1.02,.61,2.13,.68,3.33,.02,.61,.03,1.31,.03,2.09,.02,.76,.02,1.52,0,2.29,0,.74-.01,1.4-.03,1.99-.06,1.2-.29,2.32-.68,3.36-.37,1.04-.91,1.96-1.63,2.74-.7,.78-1.59,1.4-2.67,1.86-1.06,.43-2.34,.65-3.84,.65Zm0-4.73c1.06,0,1.83-.36,2.3-1.08,.49-.74,.75-1.73,.77-2.97,.04-.63,.06-1.3,.06-1.99,.02-.7,.02-1.39,0-2.09,0-.7-.02-1.34-.06-1.93-.02-1.2-.28-2.17-.77-2.91-.47-.74-1.24-1.12-2.3-1.14-1.04,.02-1.81,.4-2.3,1.14-.47,.74-.73,1.71-.77,2.91,0,.59-.01,1.23-.03,1.93v2.09c.02,.7,.03,1.36,.03,1.99,.04,1.24,.31,2.23,.8,2.97,.49,.72,1.25,1.08,2.27,1.08Zm20.86,4.73c-1.47,0-2.75-.22-3.84-.65-1.06-.46-1.95-1.08-2.67-1.86-.72-.78-1.26-1.7-1.63-2.74-.37-1.04-.58-2.17-.64-3.36-.02-.59-.04-1.25-.06-1.99v-2.29c.02-.78,.04-1.48,.06-2.09,.06-1.2,.28-2.31,.64-3.33,.39-1.04,.94-1.95,1.66-2.71,.74-.78,1.64-1.39,2.7-1.83,1.08-.43,2.34-.65,3.78-.65s2.71,.22,3.78,.65c1.08,.43,1.98,1.04,2.7,1.83,.72,.76,1.27,1.67,1.66,2.71,.39,1.02,.61,2.13,.68,3.33,.02,.61,.03,1.31,.03,2.09,.02,.76,.02,1.52,0,2.29,0,.74-.01,1.4-.03,1.99-.06,1.2-.29,2.32-.68,3.36-.37,1.04-.91,1.96-1.63,2.74-.7,.78-1.59,1.4-2.67,1.86-1.06,.43-2.34,.65-3.84,.65Zm0-4.73c1.06,0,1.83-.36,2.3-1.08,.49-.74,.75-1.73,.77-2.97,.04-.63,.06-1.3,.06-1.99,.02-.7,.02-1.39,0-2.09,0-.7-.02-1.34-.06-1.93-.02-1.2-.28-2.17-.77-2.91-.47-.74-1.24-1.12-2.3-1.14-1.04,.02-1.81,.4-2.3,1.14-.47,.74-.73,1.71-.77,2.91,0,.59-.01,1.23-.03,1.93v2.09c.02,.7,.03,1.36,.03,1.99,.04,1.24,.31,2.23,.8,2.97,.49,.72,1.25,1.08,2.27,1.08Zm28.56,4.73c-1.12,0-2.08-.21-2.85-.62-.78-.41-1.41-.94-1.9-1.57v1.04c0,.22-.08,.41-.25,.59-.14,.15-.32,.23-.52,.23h-3.47c-.22,0-.41-.08-.55-.23-.14-.17-.21-.37-.21-.59v-21.55c0-.24,.07-.43,.21-.59,.14-.15,.33-.23,.55-.23h3.75c.23,0,.41,.08,.55,.23,.14,.15,.21,.35,.21,.59v6.99c.51-.57,1.14-1.02,1.87-1.37,.74-.37,1.61-.56,2.61-.56s1.92,.19,2.7,.56c.8,.35,1.47,.86,2.03,1.53,.55,.65,.98,1.46,1.29,2.42,.31,.94,.48,1.98,.52,3.13,.02,.43,.03,.83,.03,1.18,0,.33,0,.71-.03,1.14-.04,1.22-.21,2.31-.52,3.27-.31,.94-.75,1.74-1.32,2.42-.55,.65-1.22,1.15-2,1.5-.78,.33-1.68,.49-2.7,.49Zm-1.66-4.38c.7,0,1.24-.15,1.63-.46,.39-.3,.67-.72,.83-1.24,.18-.52,.3-1.1,.34-1.73,.04-.68,.04-1.35,0-2.02-.04-.63-.15-1.21-.34-1.73-.16-.52-.44-.94-.83-1.24-.39-.3-.93-.46-1.63-.46-.63,0-1.16,.15-1.57,.46-.41,.28-.72,.66-.92,1.14-.2,.46-.32,.96-.34,1.5-.02,.41-.03,.82-.03,1.21s.01,.81,.03,1.24c.04,.59,.15,1.13,.34,1.63,.18,.5,.48,.91,.89,1.24,.41,.3,.94,.46,1.6,.46Zm12.03,10.25c-.22,0-.41-.09-.55-.26-.14-.15-.21-.34-.21-.56v-21.55c0-.24,.07-.43,.21-.59,.14-.15,.33-.23,.55-.23h3.47c.21,0,.38,.08,.52,.23,.16,.15,.25,.35,.25,.59v1.18c.49-.65,1.13-1.2,1.9-1.63,.78-.46,1.73-.69,2.85-.69,1.02,0,1.92,.17,2.7,.52,.78,.33,1.44,.82,2,1.47,.57,.65,1.01,1.45,1.32,2.38,.31,.94,.48,2.01,.52,3.23,.02,.43,.03,.84,.03,1.21s0,.77-.03,1.21c-.04,1.18-.21,2.23-.52,3.17s-.74,1.73-1.29,2.38-1.23,1.17-2.03,1.53c-.78,.35-1.68,.52-2.7,.52s-1.88-.19-2.64-.56c-.74-.39-1.35-.94-1.84-1.63v7.25c0,.22-.07,.4-.21,.56-.14,.17-.33,.26-.55,.26h-3.75Zm7.34-10.25c.7,0,1.24-.15,1.63-.46,.39-.3,.67-.72,.83-1.24,.18-.52,.3-1.1,.34-1.73,.04-.68,.04-1.35,0-2.02-.04-.63-.15-1.21-.34-1.73-.16-.52-.44-.94-.83-1.24-.39-.3-.93-.46-1.63-.46-.65,0-1.19,.16-1.6,.49-.41,.3-.71,.71-.89,1.21-.18,.5-.3,1.04-.34,1.63-.02,.41-.03,.82-.03,1.21s.01,.81,.03,1.24c.02,.54,.13,1.06,.34,1.53,.21,.46,.51,.84,.92,1.14,.41,.28,.93,.42,1.57,.42Zm12.03,4.05c-.22,0-.41-.08-.55-.23-.14-.17-.21-.37-.21-.59v-15.35c0-.24,.07-.43,.21-.59,.14-.15,.33-.23,.55-.23h3.35c.23,0,.41,.08,.55,.23,.14,.15,.21,.35,.21,.59v1.11c.41-.59,.98-1.1,1.72-1.53,.74-.46,1.61-.7,2.61-.72,2.37-.07,4,.87,4.88,2.81,.47-.83,1.14-1.5,2-2.02,.88-.52,1.84-.78,2.89-.78s2.02,.26,2.85,.78c.86,.5,1.55,1.28,2.06,2.35,.51,1.04,.77,2.41,.77,4.08v9.27c0,.22-.07,.41-.21,.59-.14,.15-.33,.23-.55,.23h-3.56c-.22,0-.42-.08-.58-.23-.14-.17-.21-.37-.21-.59v-9.04c0-.76-.1-1.36-.31-1.8-.2-.46-.48-.78-.83-.98-.35-.2-.75-.29-1.2-.29-.37,0-.74,.1-1.11,.29-.35,.2-.63,.52-.86,.98-.2,.43-.31,1.03-.31,1.8v9.04c0,.22-.07,.41-.21,.59-.14,.15-.33,.23-.55,.23h-3.56c-.22,0-.41-.08-.55-.23-.14-.17-.21-.37-.21-.59v-9.04c0-.76-.11-1.36-.34-1.8-.22-.46-.51-.78-.86-.98-.35-.2-.73-.29-1.14-.29-.39,0-.77,.1-1.14,.29-.35,.2-.63,.52-.86,.98-.2,.43-.31,1.02-.31,1.76v9.08c0,.22-.08,.41-.25,.59-.14,.15-.32,.23-.52,.23h-3.65Z"/>
  <path class="cls-1" d="M181.84,241.27v-18.17h-3.24v7.69h-6.73v-7.83l-3.24,.13v18.17h3.24v-7.69h6.73v7.69h3.24Zm14.45-5.45v-1.07c0-1.23-.2-2.36-.6-3.39-.39-1.03-.99-1.85-1.81-2.46-.82-.62-1.87-.93-3.14-.93s-2.34,.28-3.27,.85c-.92,.55-1.63,1.34-2.13,2.38-.49,1.02-.73,2.22-.73,3.61s.26,2.57,.78,3.61c.52,1.02,1.3,1.8,2.34,2.35,1.05,.55,2.37,.83,3.94,.83,.7,0,1.32-.07,1.86-.21,.55-.12,1.05-.3,1.48-.53,.45-.25,.86-.53,1.23-.85l-.95-2.51c-.54,.34-1.08,.61-1.63,.83-.55,.21-1.19,.32-1.91,.32-.8,0-1.46-.12-1.96-.35s-.89-.55-1.16-.96c-.27-.43-.45-.93-.55-1.5h8.21Zm-8.19-2.32c.1-.57,.27-1.04,.5-1.42s.53-.66,.88-.85c.35-.2,.75-.29,1.18-.29s.82,.1,1.16,.29c.35,.18,.64,.45,.88,.83s.4,.85,.5,1.44h-5.1Zm12.67,3.9c0-.46,.15-.88,.45-1.26,.3-.37,.74-.56,1.31-.56h2.46v1.98c-.42,.43-.86,.75-1.33,.96-.45,.21-.9,.32-1.36,.32-.3,0-.57-.06-.8-.19-.22-.14-.39-.32-.53-.53-.13-.23-.2-.47-.2-.72Zm-1.31-5.37c.45-.21,1.01-.41,1.68-.59,.67-.18,1.29-.27,1.86-.27,.6,0,1.07,.19,1.41,.56,.35,.36,.54,.85,.55,1.5v.03h-2.39c-1.37,.02-2.49,.38-3.34,1.1-.85,.69-1.28,1.71-1.28,3.05,0,1.25,.36,2.26,1.08,3.05,.72,.77,1.83,1.15,3.32,1.15,.6,0,1.17-.16,1.71-.48,.55-.32,1.05-.73,1.51-1.23l.55,1.39h2.13v-8.52c0-.93-.24-1.75-.73-2.46-.47-.73-1.11-1.3-1.91-1.71-.8-.41-1.69-.61-2.66-.61-.33,0-.8,.05-1.38,.16-.57,.11-1.13,.25-1.68,.43-.55,.16-.99,.36-1.31,.59l.88,2.89Zm14.72,9.24v-7.91c.47-.45,.96-.84,1.48-1.18,.54-.34,1.05-.61,1.53-.8,.49-.2,.92-.29,1.31-.29l-.65-2.78c-.44,0-.91,.12-1.43,.35-.5,.23-1,.52-1.48,.85-.49,.32-.9,.64-1.23,.96l-1.08-2.16h-1.71v12.96h3.27Zm11.91-12.9h-2.21v-3.71l-3.24,.61v3.1h-1.63l-.03,2.62h1.66v6.14c0,1,.2,1.84,.6,2.54,.4,.69,.95,1.23,1.66,1.6,.72,.36,1.58,.53,2.59,.53,.27,0,.56-.04,.88-.13,.32-.07,.62-.17,.9-.29,.28-.11,.51-.23,.68-.37l-.95-2.51c-.23,.11-.46,.19-.68,.24-.22,.05-.44,.08-.65,.08-.59,0-1.03-.21-1.33-.64-.3-.43-.45-.98-.45-1.66v-5.53h3.21l-1-2.62Zm15.26-2.38c.72,0,1.33,.1,1.83,.29,.5,.2,.89,.51,1.16,.93,.28,.41,.43,.95,.43,1.63,0,.64-.15,1.16-.45,1.55-.28,.37-.68,.66-1.18,.85s-1.08,.29-1.73,.29h-2.06v-5.56h2.01Zm-5.25-2.89v18.17h3.24v-6.89h1.51c.25,0,.5,0,.75,.03,.27,0,.54,0,.8-.03l3.62,6.89h3.47l-4.17-7.83c.84-.43,1.52-1.04,2.06-1.84,.55-.82,.83-1.79,.83-2.91,0-1.28-.31-2.33-.93-3.15-.6-.82-1.41-1.42-2.44-1.82-1.02-.41-2.16-.61-3.42-.61h-5.32Zm17.5,14.29c0-.46,.15-.88,.45-1.26s.74-.56,1.31-.56h2.46v1.98c-.42,.43-.86,.75-1.33,.96-.45,.21-.9,.32-1.36,.32-.3,0-.57-.06-.8-.19-.22-.14-.39-.32-.53-.53-.13-.23-.2-.47-.2-.72Zm-1.31-5.37c.45-.21,1.01-.41,1.68-.59,.67-.18,1.29-.27,1.86-.27,.6,0,1.07,.19,1.41,.56,.35,.36,.54,.85,.55,1.5v.03h-2.39c-1.37,.02-2.49,.38-3.34,1.1-.85,.69-1.28,1.71-1.28,3.05,0,1.25,.36,2.26,1.08,3.05,.72,.77,1.83,1.15,3.32,1.15,.6,0,1.17-.16,1.71-.48,.55-.32,1.05-.73,1.51-1.23l.55,1.39h2.13v-8.52c0-.93-.24-1.75-.73-2.46-.47-.73-1.11-1.3-1.91-1.71-.8-.41-1.69-.61-2.66-.61-.33,0-.8,.05-1.38,.16-.57,.11-1.13,.25-1.68,.43-.55,.16-.99,.36-1.31,.59l.88,2.89Zm17.4-3.66h-2.21v-3.71l-3.24,.61v3.1h-1.63l-.03,2.62h1.66v6.14c0,1,.2,1.84,.6,2.54,.4,.69,.95,1.23,1.66,1.6,.72,.36,1.58,.53,2.59,.53,.27,0,.56-.04,.88-.13,.32-.07,.62-.17,.9-.29,.28-.11,.51-.23,.68-.37l-.95-2.51c-.23,.11-.46,.19-.68,.24-.22,.05-.44,.08-.65,.08-.59,0-1.03-.21-1.33-.64-.3-.43-.45-.98-.45-1.66v-5.53h3.21l-1-2.62Zm14.54,7.45v-1.07c0-1.23-.2-2.36-.6-3.39-.39-1.03-.99-1.85-1.81-2.46-.82-.62-1.87-.93-3.14-.93s-2.34,.28-3.27,.85c-.92,.55-1.63,1.34-2.13,2.38-.49,1.02-.73,2.22-.73,3.61s.26,2.57,.78,3.61c.52,1.02,1.3,1.8,2.34,2.35,1.05,.55,2.37,.83,3.94,.83,.7,0,1.32-.07,1.86-.21,.55-.12,1.05-.3,1.48-.53,.45-.25,.86-.53,1.23-.85l-.95-2.51c-.54,.34-1.08,.61-1.63,.83-.55,.21-1.19,.32-1.91,.32-.8,0-1.46-.12-1.96-.35s-.89-.55-1.16-.96c-.27-.43-.45-.93-.55-1.5h8.21Zm-8.19-2.32c.1-.57,.27-1.04,.5-1.42s.53-.66,.88-.85c.35-.2,.75-.29,1.18-.29s.82,.1,1.16,.29c.35,.18,.64,.45,.88,.83s.4,.85,.5,1.44h-5.1Z"/>
  <path class="cls-3" d="M192,193.41c-.79,0-1.56-.25-2.21-.73-9.64-6.96-13.81-11.73-16.11-14.71-4.91-6.36-7.25-12.89-7.19-19.96,.08-8.1,6.19-14.69,13.62-14.69,5.41,0,9.15,3.24,11.33,5.94,.07,.08,.15,.15,.25,.2s.2,.07,.31,.07,.21-.02,.31-.07,.18-.11,.25-.2c2.18-2.7,5.92-5.94,11.33-5.94,7.43,0,13.54,6.59,13.62,14.69,.07,7.07-2.28,13.6-7.19,19.96-2.3,2.98-6.47,7.75-16.11,14.71-.65,.47-1.42,.72-2.21,.73h0Z"/>
</svg>