<svg width="500" height="500" viewBox="0 0 500 500" fill="none" xmlns="http://www.w3.org/2000/svg">
<path d="M0 0L77.8056 132.528L12.1094 119.673L90.0572 221.271C86.6728 240.25 86.6711 259.714 90.0572 278.693L12.1094 380.291L77.8056 367.436L0 500L132.528 422.195L119.673 487.891L221.271 409.943C240.262 413.333 259.738 413.334 278.729 409.943L380.327 487.891L367.472 422.195L500 500L422.195 367.436L487.891 380.292L409.943 278.693C413.328 259.713 413.332 240.251 409.943 221.271L487.891 119.673L422.195 132.528L500 0L367.472 77.805L380.327 12.0739L278.693 90.0572C269.209 88.3656 259.606 87.5011 250 87.5C240.393 87.4994 230.791 88.3683 221.307 90.0572L119.673 12.0739L132.528 77.805L0 0ZM250 111.363C285.493 111.366 320.984 124.891 348.047 151.953C402.171 206.078 402.164 293.929 348.047 348.047C293.929 402.165 206.078 402.137 151.953 348.012C97.8278 293.887 97.835 206.036 151.953 151.918C179.012 124.859 214.508 111.362 250 111.363ZM250 152.272C224.981 152.272 199.969 161.786 180.894 180.859C142.746 219.008 142.741 280.952 180.894 319.105C219.048 357.258 280.956 357.254 319.104 319.105C357.253 280.957 357.258 219.013 319.104 180.859C300.028 161.782 275.019 152.274 250 152.272Z" fill="#601E2A"/>
</svg>
