<svg width="1847" height="1847" viewBox="0 0 1847 1847" fill="none" xmlns="http://www.w3.org/2000/svg">
<path fill-rule="evenodd" clip-rule="evenodd" d="M54.3207 778.207V899.42H408.886C450.098 899.42 502.752 861.312 502.752 798.272C502.752 772.918 512.449 756.379 482.648 722.842L437.297 669.106C411.31 644.863 440.401 644.863 462.229 644.863H611.93V899.42H730.651V644.863H890.662V535.848H372.522C309.481 535.848 278.656 596.378 280.39 627.893C282.134 659.409 287.931 699.059 340.317 746.692C388.102 790.127 316.658 778.207 309.481 778.207H54.3207V778.207ZM1153.18 535.848H961.656L854.289 899.43H973.777L993.162 848.52H1119.22L1137.94 899.43H1254.98L1153.18 535.848V535.848ZM1019.84 761.237L1061.05 627.893L1099.85 761.237H1019.84V761.237ZM1633.2 778.207C1587.13 778.207 1587.13 761.237 1587.13 761.237C1626.6 761.237 1661.6 703.735 1661.6 644.863C1661.6 585.991 1604.1 535.848 1558.02 535.848H1300.35V899.43H1431.28V778.217C1431.28 778.217 1487.03 843.672 1516.12 870.339C1545.22 897.006 1547.64 899.43 1587.12 899.43H1792.65V778.217C1792.67 778.207 1679.26 778.207 1633.2 778.207V778.207ZM1514.4 693.358H1431.3V627.893H1514.4C1552.5 627.893 1559.09 693.358 1514.4 693.358ZM54.3207 945.481H188.268L222.208 1066.71L253.723 945.481H394.34L430.704 1066.71L467.078 945.481H583.442L476.765 1309.15H370.098L323.356 1137.01L270.693 1309.15H161.601L54.3207 945.481ZM858.342 947.58H666.816L559.458 1311.15H678.937L698.331 1260.25H824.402L843.116 1311.15H960.171L858.342 947.58ZM725.008 1172.96L766.22 1039.62L805.008 1172.96H725.008ZM1635.61 1054.59C1613.81 1054.59 1590.04 1057.14 1616.03 1081.37L1661.4 1135.12C1691.19 1168.66 1690.71 1182.64 1690.71 1208.01C1690.71 1271.04 1628.35 1309.15 1587.13 1309.15L1300.67 1311.08C1261.2 1311.08 1258.79 1308.66 1229.69 1281.99C1200.6 1255.33 1144.84 1189.86 1144.84 1189.86V1311.08H1013.93V947.503H1271.6C1317.66 947.503 1375.17 997.656 1375.17 1056.52C1375.17 1115.4 1340.18 1172.89 1300.69 1172.89C1300.69 1172.89 1318.05 1190.35 1347.14 1190.35C1376.24 1190.35 1488.26 1190.47 1488.26 1190.47C1495.42 1190.47 1566.86 1202.39 1519.08 1158.95C1466.7 1111.32 1460.9 1071.69 1459.16 1040.17C1457.41 1008.66 1484.66 945.491 1547.68 945.491H1792.69V1054.6H1635.61V1054.59V1054.59ZM1227.94 1105H1144.83V1039.54H1227.94C1266.05 1039.54 1272.63 1105 1227.94 1105Z" fill="#A52B3E"/>
</svg>
